<?xml version="1.0" encoding="UTF-8"?>
<!DOCTYPE svg PUBLIC "-//W3C//DTD SVG 1.1//EN" "http://www.w3.org/Graphics/SVG/1.1/DTD/svg11.dtd">
<!-- Creator: CorelDRAW -->
<svg xmlns="http://www.w3.org/2000/svg" xml:space="preserve" width="16px" height="20px" version="1.1" style="shape-rendering:geometricPrecision; text-rendering:geometricPrecision; image-rendering:optimizeQuality; fill-rule:evenodd; clip-rule:evenodd"
viewBox="0 0 16.09 20.58"
 xmlns:xlink="http://www.w3.org/1999/xlink"
 xmlns:xodm="http://www.corel.com/coreldraw/odm/2003">
 <defs>
  <style type="text/css">
   <![CDATA[
    .fil0 {fill:black;fill-rule:nonzero}
   ]]>
  </style>
 </defs>
 <g id="Слой_x0020_1">
  <metadata id="CorelCorpID_0Corel-Layer"/>
  <path class="fil0" d="M11.29 9.28l-2.48 2.01 7.28 0 0 2.22 -9.44 0c-0.63,0.47 -1.01,1.05 -1.01,1.79 0,1.26 1.01,1.95 2.8,1.95 1.53,0 2.85,-0.74 3.9,-2.26l2.9 1.95c-1.58,2.43 -4.43,3.64 -7.12,3.64 -3.54,0 -6.17,-1.69 -6.17,-4.48 0,-0.95 0.34,-1.87 0.95,-2.59l-2.9 0 0 -2.22 4.64 0 2.53 -2.01 -7.17 0 0 -2.21 9.39 0c0.69,-0.63 1,-1.21 1,-1.89 0,-1.11 -1,-1.9 -2.53,-1.9 -1.48,0 -2.74,0.83 -3.64,2.26l-2.8 -1.9c1.53,-2.43 4.01,-3.64 6.7,-3.64 3.64,0 6.02,1.9 6.02,4.48 0,0.01 0,0.02 0,0.02 0,0.92 -0.3,1.82 -0.84,2.57l2.79 0 0 2.21 -4.8 0z"/>
 </g>
</svg>
