<?xml version="1.0" encoding="UTF-8"?>
<!DOCTYPE svg PUBLIC "-//W3C//DTD SVG 1.1//EN" "http://www.w3.org/Graphics/SVG/1.1/DTD/svg11.dtd">
<!-- Creator: CorelDRAW -->
<svg xmlns="http://www.w3.org/2000/svg" xml:space="preserve" width="20px" height="20px" version="1.1" style="shape-rendering:geometricPrecision; text-rendering:geometricPrecision; image-rendering:optimizeQuality; fill-rule:evenodd; clip-rule:evenodd"
viewBox="0 0 20.75 20.77"
 xmlns:xlink="http://www.w3.org/1999/xlink"
 xmlns:xodm="http://www.corel.com/coreldraw/odm/2003">
 <defs>
  <style type="text/css">
   <![CDATA[
    .fil0 {fill:#512729;fill-rule:nonzero}
   ]]>
  </style>
 </defs>
 <g id="Слой_x0020_1">
  <metadata id="CorelCorpID_0Corel-Layer"/>
  <g id="_2241984513360">
   <path class="fil0" d="M2.64 0.01c-0.05,0.01 -0.18,0.04 -0.31,0.06 -0.88,0.18 -1.74,0.91 -2.11,1.8 -0.23,0.54 -0.22,0.05 -0.22,8.5 0,8.46 -0.01,7.97 0.22,8.51 0.3,0.72 0.93,1.34 1.63,1.64 0.55,0.23 0.36,0.22 3.97,0.23l3.33 0.02 0 -3.68 0 -3.67 -1.22 0 -1.21 0 0 -1.83 0 -1.82 1.21 0 1.22 0 0.01 -1.54c0.02,-1.42 0.02,-1.55 0.11,-1.85 0.35,-1.27 1.35,-2.27 2.62,-2.63 0.31,-0.08 0.4,-0.09 2.47,-0.1l2.14 -0.02 0 1.83 0 1.83 -1.85 0 -1.85 0 0 1.24 0 1.24 1.85 0 1.85 0 -0.02 0.1c-0.01,0.07 -0.14,0.84 -0.29,1.72 -0.14,0.88 -0.27,1.65 -0.28,1.72l-0.03 0.11 -1.54 0 -1.54 0 0 3.67 0 3.68 2.74 -0.02c2.32,-0.01 2.75,-0.02 2.93,-0.08 1.13,-0.35 1.93,-1.17 2.21,-2.26 0.09,-0.33 0.09,-15.74 0,-16.07 -0.24,-0.93 -0.92,-1.74 -1.79,-2.11 -0.57,-0.24 0.08,-0.22 -8.4,-0.23 -4.27,0 -7.81,0 -7.85,0.01l0 0z"/>
  </g>
 </g>
</svg>
