<?xml version="1.0" encoding="UTF-8"?>
<!DOCTYPE svg PUBLIC "-//W3C//DTD SVG 1.1//EN" "http://www.w3.org/Graphics/SVG/1.1/DTD/svg11.dtd">
<!-- Creator: CorelDRAW -->
<svg xmlns="http://www.w3.org/2000/svg" xml:space="preserve" width="150px" height="39px" version="1.1" style="shape-rendering:geometricPrecision; text-rendering:geometricPrecision; image-rendering:optimizeQuality; fill-rule:evenodd; clip-rule:evenodd"
viewBox="0 0 28.33 7.41"
 xmlns:xlink="http://www.w3.org/1999/xlink"
 xmlns:xodm="http://www.corel.com/coreldraw/odm/2003">
 <defs>
  <style type="text/css">
   <![CDATA[
    .fil0 {fill:black;fill-rule:nonzero}
    .fil1 {fill:#2B2A29;fill-rule:nonzero}
   ]]>
  </style>
 </defs>
 <g id="Слой_x0020_1">
  <metadata id="CorelCorpID_0Corel-Layer"/>
  <g id="_2744533669504">
   <g>
    <path class="fil0" d="M2.88 0.35c-0.45,0.07 -1.09,0.34 -1.56,0.68 -0.34,0.23 -0.84,0.71 -1.1,1.05 -0.12,0.14 -0.22,0.28 -0.22,0.29 -0.01,0.02 0.19,-0.1 0.43,-0.26 0.81,-0.52 1.26,-0.7 2.02,-0.77 0.65,-0.07 1.37,0.06 2.72,0.49l0.52 0.15 0.69 -0.31c0.38,-0.18 0.69,-0.33 0.69,-0.35 0,-0.02 -0.12,-0.06 -0.98,-0.35 -1.41,-0.47 -2.55,-0.69 -3.21,-0.62l0 0z"/>
    <path class="fil0" d="M6.93 2.13c-1.46,0.68 -2.76,1.25 -3.53,1.57 -0.68,0.27 -1.25,0.53 -1.29,0.57 -0.12,0.1 -0.15,0.25 -0.15,0.74 0.01,0.69 0.03,0.7 0.22,0.1 0.18,-0.6 0.2,-0.64 0.29,-0.69 0.16,-0.08 2.33,-0.88 4.61,-1.71 1.3,-0.47 2.4,-0.87 2.48,-0.91 0.06,-0.03 0.14,-0.1 0.17,-0.15 0.11,-0.18 0.04,-0.46 -0.13,-0.55 -0.21,-0.11 -0.22,-0.1 -2.67,1.03l0 0z"/>
    <path class="fil0" d="M7.66 2.21c-0.41,0.15 -0.71,0.27 -0.68,0.28 0.13,0.04 1.22,0.58 1.47,0.72 0.16,0.09 0.29,0.16 0.29,0.16 0,-0.01 0.01,-0.29 0.02,-0.64l0.03 -0.62 -0.16 -0.09c-0.09,-0.04 -0.18,-0.07 -0.2,-0.07 -0.02,0 -0.38,0.12 -0.77,0.26l0 0 0 0z"/>
    <path class="fil0" d="M0.88 4.49c-0.07,0.05 -0.06,0.08 0.07,0.15 0.14,0.09 0.15,0.09 0.15,-0.03 0,-0.06 -0.02,-0.1 -0.09,-0.12 -0.09,-0.06 -0.08,-0.06 -0.13,0l0 0 0 0z"/>
    <path class="fil0" d="M0.87 5.01c-0.21,0.1 -0.26,0.18 -0.16,0.21 0.08,0.02 0.42,-0.15 0.42,-0.2 0,-0.12 -0.05,-0.12 -0.26,-0.01l0 0z"/>
    <path class="fil0" d="M1.64 5.04c-0.01,0.04 0,0.08 0.02,0.1 0.02,0.02 0.18,0.15 0.34,0.27l0.31 0.24 -0.29 0.29c-0.28,0.27 -0.32,0.33 -0.23,0.37 0.05,0.01 0.15,-0.07 0.36,-0.27l0.29 -0.29 0.21 0.11 0.2 0.12 -0.2 0.29c-0.1,0.17 -0.19,0.31 -0.18,0.33 0,0.02 0.04,0.03 0.08,0.03 0.04,0 0.11,-0.08 0.24,-0.26 0.09,-0.14 0.18,-0.28 0.19,-0.29 0.04,-0.03 0.45,0.13 0.45,0.17 0,0.01 -0.04,0.15 -0.1,0.31 -0.07,0.21 -0.09,0.3 -0.06,0.32 0.07,0.08 0.12,-0.01 0.22,-0.3 0.07,-0.17 0.12,-0.3 0.12,-0.31 0.01,-0.01 0.47,0.08 0.49,0.09 0.01,0.01 0,0.15 -0.02,0.31 -0.02,0.24 -0.02,0.3 0.02,0.34 0.07,0.07 0.11,0 0.15,-0.29 0.02,-0.16 0.03,-0.29 0.03,-0.32 0,-0.02 0.1,-0.02 0.26,-0.02l0.26 0.01 0.03 0.3c0.05,0.32 0.1,0.42 0.18,0.34 0.04,-0.03 0.04,-0.08 0,-0.31 -0.02,-0.16 -0.05,-0.29 -0.05,-0.32 0,-0.02 0.08,-0.04 0.17,-0.06 0.1,-0.01 0.2,-0.02 0.24,-0.03 0.07,-0.02 0.09,0.02 0.21,0.3 0.07,0.19 0.15,0.35 0.17,0.36 0.02,0.01 0.05,0 0.07,-0.03 0.04,-0.05 0.03,-0.09 -0.08,-0.36 -0.06,-0.17 -0.12,-0.31 -0.11,-0.32 0.01,-0.01 0.11,-0.04 0.21,-0.07 0.14,-0.05 0.21,-0.05 0.23,-0.03 0.03,0.03 0.14,0.16 0.24,0.32 0.18,0.26 0.27,0.33 0.31,0.23 0.01,-0.03 -0.07,-0.18 -0.19,-0.35 -0.12,-0.16 -0.2,-0.3 -0.2,-0.31 0.01,0 0.09,-0.03 0.19,-0.06l0.17 -0.07 0.27 0.29c0.15,0.15 0.3,0.28 0.32,0.27 0.1,-0.03 0.05,-0.14 -0.19,-0.38l-0.25 -0.25 0.15 -0.05c0.07,-0.03 0.14,-0.05 0.16,-0.05 0.01,0 0.19,0.14 0.38,0.32 0.24,0.22 0.37,0.32 0.4,0.31 0.1,-0.04 0.05,-0.12 -0.26,-0.4 -0.16,-0.16 -0.31,-0.3 -0.31,-0.31 0,-0.03 0.27,-0.09 0.43,-0.1 0.15,-0.01 0.22,-0.06 0.15,-0.14 -0.03,-0.04 -0.07,-0.05 -0.2,-0.03 -0.21,0.02 -0.38,0.08 -1.04,0.34 -1.04,0.39 -1.37,0.47 -1.98,0.47 -1,0 -1.73,-0.29 -2.63,-1 -0.15,-0.14 -0.3,-0.24 -0.31,-0.24 -0.01,0 -0.03,0.03 -0.04,0.07l0 0 0 0z"/>
    <path class="fil0" d="M0.77 5.6c-0.65,0.23 -0.68,0.24 -0.68,0.29 0,0.09 0.07,0.08 0.42,-0.05 0.2,-0.07 0.38,-0.12 0.38,-0.12 0.01,0.01 -0.12,0.1 -0.27,0.22 -0.28,0.2 -0.37,0.32 -0.25,0.32 0.03,0 0.19,-0.11 0.37,-0.24 0.18,-0.14 0.32,-0.24 0.32,-0.23 0,0.01 -0.09,0.16 -0.2,0.31 -0.22,0.31 -0.25,0.39 -0.16,0.39 0.03,0 0.16,-0.15 0.33,-0.4 0.36,-0.49 0.38,-0.53 0.33,-0.59 -0.07,-0.08 -0.14,-0.06 -0.59,0.1l0 0 0 0z"/>
   </g>
   <g>
    <path class="fil1" d="M13.23 1.85c0.37,-0.67 0.71,-1.14 0.99,-1.43 0.28,-0.28 0.55,-0.42 0.82,-0.42 0.18,0 0.31,0.05 0.42,0.16 0.1,0.1 0.16,0.24 0.16,0.4 0,0.18 -0.13,0.66 -0.39,1.45 -0.06,0.2 -0.11,0.35 -0.16,0.46 -0.02,0.09 -0.06,0.21 -0.11,0.37 -0.16,0.44 -0.23,0.72 -0.23,0.82 0,0.13 0.04,0.21 0.11,0.27 0.08,0.05 0.21,0.09 0.39,0.1l-0.1 0.37 -0.11 0c-0.32,0 -0.57,-0.06 -0.74,-0.19 -0.17,-0.12 -0.25,-0.3 -0.25,-0.55 0,-0.21 0.13,-0.67 0.39,-1.37 0.09,-0.25 0.16,-0.44 0.2,-0.58 0.1,-0.25 0.16,-0.45 0.2,-0.58 0.04,-0.15 0.07,-0.25 0.07,-0.33 0,-0.05 -0.03,-0.09 -0.05,-0.12 -0.02,-0.03 -0.06,-0.04 -0.1,-0.04 -0.07,0 -0.17,0.05 -0.28,0.14 -0.12,0.11 -0.24,0.25 -0.4,0.46 -0.23,0.3 -0.44,0.61 -0.62,0.91 -0.19,0.3 -0.36,0.59 -0.48,0.85 -0.19,0.39 -0.36,0.79 -0.5,1.18 -0.04,0.1 -0.06,0.15 -0.07,0.16 -0.02,0.03 -0.07,0.05 -0.13,0.07 -0.07,0.02 -0.15,0.03 -0.25,0.03 -0.11,0 -0.17,-0.01 -0.21,-0.03 -0.04,-0.02 -0.06,-0.06 -0.06,-0.1 0,-0.06 0.06,-0.23 0.18,-0.51 0.07,-0.14 0.12,-0.25 0.16,-0.35 0.22,-0.51 0.4,-0.99 0.52,-1.43 0.13,-0.43 0.19,-0.77 0.19,-0.99 0,-0.12 -0.03,-0.23 -0.08,-0.29 -0.07,-0.07 -0.15,-0.1 -0.25,-0.1 -0.18,0 -0.34,0.11 -0.48,0.33 -0.14,0.22 -0.21,0.47 -0.21,0.76 0,0.1 0.01,0.19 0.03,0.28 0.02,0.1 0.04,0.19 0.08,0.3 -0.03,0.02 -0.06,0.03 -0.1,0.04 -0.03,0.01 -0.08,0.02 -0.12,0.02 -0.15,0 -0.27,-0.06 -0.35,-0.18 -0.09,-0.11 -0.13,-0.29 -0.13,-0.52 0,-0.44 0.15,-0.83 0.42,-1.16 0.27,-0.32 0.59,-0.49 0.96,-0.49 0.25,0 0.45,0.08 0.6,0.25 0.15,0.17 0.22,0.4 0.22,0.68 0,0.11 -0.01,0.24 -0.03,0.38 -0.03,0.15 -0.07,0.32 -0.12,0.52l0 0zm4.61 0.48c-0.05,-0.05 -0.1,-0.08 -0.15,-0.1 -0.05,-0.02 -0.1,-0.02 -0.15,-0.02 -0.11,0 -0.23,0.04 -0.38,0.14 -0.15,0.09 -0.28,0.23 -0.41,0.39 -0.12,0.15 -0.22,0.32 -0.29,0.48 -0.06,0.17 -0.1,0.32 -0.1,0.44 0,0.1 0.02,0.17 0.05,0.21 0.03,0.04 0.07,0.06 0.14,0.06 0.18,0 0.39,-0.13 0.61,-0.4 0.22,-0.28 0.44,-0.68 0.68,-1.2l0 0zm-0.28 1.06c-0.2,0.35 -0.4,0.62 -0.6,0.77 -0.2,0.17 -0.41,0.25 -0.63,0.25 -0.11,0 -0.2,-0.01 -0.28,-0.04 -0.08,-0.03 -0.14,-0.07 -0.18,-0.14 -0.1,0.06 -0.21,0.1 -0.33,0.12 -0.11,0.03 -0.26,0.04 -0.41,0.05l0.1 -0.37c0.1,-0.01 0.2,-0.02 0.28,-0.05 0.08,-0.02 0.16,-0.05 0.22,-0.08 -0.01,-0.04 -0.01,-0.08 -0.02,-0.12 0,-0.05 0,-0.1 0,-0.14 0,-0.16 0.03,-0.32 0.1,-0.51 0.07,-0.19 0.16,-0.37 0.29,-0.54 0.18,-0.27 0.39,-0.48 0.61,-0.62 0.23,-0.14 0.47,-0.21 0.71,-0.21 0.13,0 0.23,0.01 0.31,0.05 0.09,0.04 0.17,0.1 0.25,0.17l0.05 -0.12c0.02,-0.09 0.04,-0.13 0.07,-0.15 0.02,-0.02 0.05,-0.03 0.1,-0.03 0.13,0 0.24,0.02 0.34,0.06 0.1,0.04 0.14,0.1 0.14,0.16 0,0.02 -0.04,0.1 -0.11,0.26 -0.09,0.17 -0.16,0.31 -0.22,0.46 -0.13,0.28 -0.22,0.52 -0.28,0.72 -0.07,0.2 -0.1,0.35 -0.1,0.47 0,0.07 0.03,0.12 0.08,0.14 0.05,0.03 0.15,0.06 0.32,0.08l-0.12 0.37 -0.05 0c-0.29,0 -0.49,-0.03 -0.61,-0.09 -0.12,-0.06 -0.18,-0.17 -0.18,-0.32 0,-0.06 0.01,-0.14 0.03,-0.23 0.02,-0.1 0.06,-0.22 0.12,-0.37l0 0zm0.69 1.01l0.12 -0.37c0.21,-0.02 0.36,-0.1 0.49,-0.22 0.11,-0.12 0.22,-0.34 0.3,-0.66l0.24 -0.83 -0.27 0c-0.04,0 -0.07,0 -0.08,-0.01 -0.02,-0.03 -0.02,-0.04 -0.02,-0.07 0,0 0,-0.01 0,-0.01 0,-0.01 0,-0.02 0.01,-0.03l0.04 -0.13c0.01,-0.05 0.03,-0.07 0.06,-0.08 0.02,-0.01 0.07,-0.02 0.16,-0.02l0.21 0 0.27 -0.91c0.02,-0.05 0.03,-0.11 0.05,-0.2 0.06,-0.24 0.18,-0.37 0.35,-0.37 0.13,0 0.22,0.02 0.29,0.05 0.07,0.03 0.1,0.08 0.1,0.13 0,0.04 -0.02,0.11 -0.06,0.22 -0.02,0.05 -0.04,0.1 -0.05,0.13l-0.33 0.95 0.48 0c0.03,0 0.06,0 0.08,0.01 0.02,0.01 0.03,0.03 0.03,0.05 0,0.01 0,0.02 0,0.04 0,0 0,0.01 0,0.02l-0.06 0.13c-0.01,0.03 -0.03,0.05 -0.06,0.07 -0.03,0.02 -0.08,0.03 -0.15,0.03l-0.42 0 -0.27 0.9c-0.03,0.11 -0.06,0.19 -0.08,0.26 -0.01,0.08 -0.02,0.14 -0.02,0.18 0,0.12 0.06,0.2 0.16,0.25 0.09,0.06 0.25,0.1 0.45,0.12l-0.12 0.37 -0.06 0c-0.25,0 -0.46,-0.03 -0.63,-0.09 -0.16,-0.05 -0.29,-0.14 -0.36,-0.25 -0.11,0.1 -0.25,0.17 -0.4,0.24 -0.14,0.06 -0.29,0.09 -0.45,0.1l0 0zm4.63 -2.07c-0.06,-0.05 -0.1,-0.08 -0.15,-0.1 -0.05,-0.02 -0.1,-0.02 -0.16,-0.02 -0.1,0 -0.23,0.04 -0.37,0.14 -0.15,0.09 -0.28,0.23 -0.41,0.39 -0.12,0.15 -0.22,0.32 -0.29,0.48 -0.07,0.17 -0.11,0.32 -0.11,0.44 0,0.1 0.03,0.17 0.06,0.21 0.03,0.04 0.07,0.06 0.14,0.06 0.18,0 0.39,-0.13 0.61,-0.4 0.22,-0.28 0.44,-0.68 0.68,-1.2l0 0zm-0.29 1.06c-0.19,0.35 -0.39,0.62 -0.59,0.77 -0.2,0.17 -0.41,0.25 -0.64,0.25 -0.1,0 -0.19,-0.01 -0.27,-0.04 -0.08,-0.03 -0.14,-0.07 -0.19,-0.14 -0.09,0.06 -0.2,0.1 -0.32,0.12 -0.12,0.03 -0.26,0.04 -0.42,0.05l0.11 -0.37c0.1,-0.01 0.2,-0.02 0.28,-0.05 0.08,-0.02 0.16,-0.05 0.22,-0.08 -0.01,-0.04 -0.01,-0.08 -0.02,-0.12 0,-0.05 0,-0.1 0,-0.14 0,-0.16 0.03,-0.32 0.09,-0.51 0.07,-0.19 0.17,-0.37 0.29,-0.54 0.19,-0.27 0.39,-0.48 0.62,-0.62 0.23,-0.14 0.47,-0.21 0.71,-0.21 0.12,0 0.23,0.01 0.31,0.05 0.08,0.04 0.17,0.1 0.25,0.17l0.04 -0.12c0.02,-0.09 0.05,-0.13 0.08,-0.15 0.02,-0.02 0.05,-0.03 0.1,-0.03 0.13,0 0.24,0.02 0.33,0.06 0.11,0.04 0.15,0.1 0.15,0.16 0,0.02 -0.04,0.1 -0.11,0.26 -0.09,0.17 -0.16,0.31 -0.22,0.46 -0.13,0.28 -0.22,0.52 -0.28,0.72 -0.07,0.2 -0.1,0.35 -0.1,0.47 0,0.07 0.03,0.12 0.07,0.14 0.06,0.03 0.16,0.06 0.33,0.08l-0.12 0.37 -0.05 0c-0.29,0 -0.49,-0.03 -0.61,-0.09 -0.12,-0.06 -0.18,-0.17 -0.18,-0.32 0,-0.06 0.01,-0.14 0.03,-0.23 0.02,-0.1 0.06,-0.22 0.11,-0.37l0 0zm0.7 1.01l0.11 -0.37c0.1,0 0.21,-0.04 0.31,-0.1 0.12,-0.05 0.24,-0.14 0.38,-0.27 0.06,-0.42 0.14,-0.85 0.26,-1.31 0.1,-0.45 0.24,-0.9 0.38,-1.34 0.13,-0.36 0.24,-0.61 0.35,-0.76 0.1,-0.14 0.23,-0.21 0.37,-0.21 0.1,0 0.17,0.04 0.23,0.12 0.06,0.07 0.1,0.17 0.1,0.29 0,0.14 -0.07,0.33 -0.17,0.55 -0.12,0.23 -0.26,0.46 -0.45,0.69 -0.15,0.46 -0.26,0.89 -0.34,1.27 -0.09,0.39 -0.13,0.65 -0.13,0.77 0,0.11 0.02,0.18 0.07,0.22 0.06,0.04 0.14,0.08 0.25,0.08l-0.1 0.37 -0.07 0c-0.21,0 -0.37,-0.03 -0.49,-0.09 -0.12,-0.05 -0.19,-0.15 -0.22,-0.27 -0.13,0.11 -0.26,0.19 -0.4,0.26 -0.13,0.06 -0.28,0.09 -0.44,0.1l0 0zm2.44 -0.23c-0.14,0.06 -0.28,0.12 -0.42,0.16 -0.14,0.04 -0.27,0.06 -0.41,0.07l0.11 -0.37c0.12,-0.01 0.22,-0.04 0.33,-0.07 0.09,-0.02 0.2,-0.07 0.29,-0.12 0.01,-0.18 0.03,-0.38 0.08,-0.59 0.04,-0.2 0.12,-0.44 0.22,-0.74 0.13,-0.33 0.22,-0.55 0.28,-0.65 0.07,-0.1 0.13,-0.15 0.2,-0.15 0.15,0 0.25,0.02 0.33,0.05 0.08,0.03 0.11,0.09 0.11,0.16 0,0.04 -0.04,0.15 -0.11,0.31 -0.09,0.17 -0.15,0.3 -0.19,0.41 -0.11,0.25 -0.18,0.45 -0.22,0.59 -0.04,0.16 -0.05,0.3 -0.05,0.41 0,0.07 0.01,0.13 0.04,0.16 0.02,0.04 0.07,0.06 0.13,0.06 0.14,0 0.3,-0.1 0.47,-0.31 0.18,-0.21 0.35,-0.49 0.5,-0.84 0.08,-0.16 0.15,-0.36 0.22,-0.59 0.08,-0.25 0.17,-0.38 0.27,-0.38 0.12,0 0.21,0.02 0.3,0.06 0.08,0.05 0.12,0.09 0.12,0.15 0,0.04 -0.02,0.1 -0.07,0.21 -0.03,0.08 -0.05,0.15 -0.07,0.19l-0.64 1.75c0.1,-0.02 0.28,-0.05 0.53,-0.07 0.02,0 0.04,0 0.05,0l-0.11 0.37c-0.17,0.02 -0.3,0.03 -0.4,0.05 -0.08,0.01 -0.17,0.04 -0.24,0.06 -0.12,0.44 -0.27,0.78 -0.43,1 -0.15,0.22 -0.33,0.33 -0.54,0.33 -0.09,0 -0.16,-0.03 -0.22,-0.07 -0.05,-0.05 -0.07,-0.13 -0.07,-0.22 0,-0.17 0.06,-0.35 0.2,-0.51 0.13,-0.18 0.31,-0.31 0.53,-0.42 0.09,-0.22 0.18,-0.44 0.26,-0.65 0.07,-0.2 0.15,-0.41 0.22,-0.61 -0.2,0.36 -0.4,0.63 -0.58,0.8 -0.19,0.17 -0.39,0.25 -0.6,0.25 -0.09,0 -0.19,-0.02 -0.26,-0.06 -0.08,-0.05 -0.14,-0.1 -0.16,-0.18z"/>
    <path class="fil1" d="M11.2 7.36l0 -1.36 0.15 0 0 1.21 0.77 0 0 0.15 -0.92 0zm1.23 -0.4l0.36 0 -0.18 -0.41 -0.18 0.41zm-0.33 0.4l0.46 -1.05 0.09 0 0.47 1.05 -0.15 0 -0.12 -0.26 -0.48 0 -0.12 0.26 -0.15 0zm1.08 -0.13l0.07 -0.14c0.06,0.05 0.12,0.09 0.2,0.12 0.07,0.03 0.14,0.04 0.22,0.04 0.07,0 0.14,-0.02 0.19,-0.06 0.05,-0.03 0.08,-0.09 0.08,-0.15 0,-0.06 -0.03,-0.1 -0.08,-0.13 -0.04,-0.04 -0.11,-0.05 -0.21,-0.05 -0.16,-0.01 -0.28,-0.03 -0.34,-0.07 -0.06,-0.04 -0.09,-0.11 -0.09,-0.21 0,-0.09 0.03,-0.17 0.1,-0.22 0.06,-0.05 0.16,-0.08 0.27,-0.08 0.08,0 0.16,0.01 0.23,0.04 0.07,0.02 0.15,0.06 0.21,0.12l-0.07 0.13c-0.05,-0.04 -0.12,-0.08 -0.18,-0.1 -0.07,-0.02 -0.14,-0.04 -0.19,-0.04 -0.07,0 -0.12,0.02 -0.16,0.04 -0.05,0.03 -0.07,0.07 -0.07,0.11 0,0.04 0.02,0.09 0.07,0.11 0.04,0.02 0.11,0.02 0.21,0.02 0.15,0 0.25,0.03 0.33,0.09 0.07,0.05 0.11,0.14 0.11,0.25 0,0.11 -0.04,0.19 -0.11,0.25 -0.08,0.06 -0.17,0.11 -0.29,0.11 -0.09,0 -0.18,-0.02 -0.27,-0.06 -0.08,-0.02 -0.16,-0.06 -0.24,-0.12l0.01 0zm1.3 -0.36l0 0.49 -0.15 0 0 -1.05 0.15 0 0 0.41 0.64 0 0 -0.41 0.14 0 0 1.05 -0.14 0 0 -0.49 -0.64 0zm1.71 -0.26l0.46 0 0 0.15 -0.46 0 0 -0.15zm1.55 -0.07l0.57 0c0.06,0 0.11,-0.02 0.14,-0.05 0.03,-0.03 0.04,-0.08 0.04,-0.14 0,-0.07 -0.01,-0.11 -0.04,-0.14 -0.03,-0.03 -0.08,-0.06 -0.14,-0.06l-0.57 0 0 0.39zm0 0.67l0.62 0c0.07,0 0.12,-0.02 0.16,-0.07 0.04,-0.05 0.06,-0.11 0.06,-0.18 0,-0.09 -0.02,-0.15 -0.06,-0.19 -0.04,-0.05 -0.09,-0.07 -0.16,-0.07l-0.62 0 0 0.51 0 0zm-0.14 0.15l0 -1.36 0.7 0c0.11,0 0.19,0.03 0.26,0.08 0.06,0.06 0.09,0.15 0.09,0.26 0,0.05 -0.01,0.11 -0.03,0.15 -0.02,0.04 -0.04,0.07 -0.08,0.1 0.06,0.04 0.11,0.1 0.14,0.16 0.03,0.06 0.05,0.12 0.05,0.21 0,0.12 -0.04,0.23 -0.11,0.3 -0.07,0.07 -0.17,0.1 -0.29,0.1l-0.73 0 0 0zm1.54 -0.61l0.49 0c0.05,0 0.09,-0.01 0.12,-0.03 0.02,-0.03 0.03,-0.07 0.03,-0.12 0,-0.04 -0.01,-0.08 -0.03,-0.1 -0.03,-0.02 -0.07,-0.03 -0.12,-0.03l-0.49 0 0 0.28zm0 0.16l0 0.45 -0.13 0 0 -1.05 0.62 0c0.1,0 0.17,0.02 0.22,0.07 0.05,0.06 0.07,0.13 0.07,0.22 0,0.08 -0.02,0.15 -0.06,0.2 -0.04,0.05 -0.09,0.09 -0.16,0.1l0.26 0.46 -0.16 0 -0.26 -0.46 -0.4 0 0 0.01zm1.52 0.34c0.12,0 0.22,-0.04 0.3,-0.12 0.08,-0.08 0.11,-0.17 0.11,-0.29 0,-0.12 -0.03,-0.22 -0.11,-0.29 -0.08,-0.08 -0.18,-0.11 -0.3,-0.11 -0.12,0 -0.21,0.03 -0.3,0.11 -0.07,0.07 -0.11,0.17 -0.11,0.29 0,0.12 0.04,0.21 0.11,0.29 0.09,0.08 0.18,0.12 0.3,0.12zm0 0.16c-0.16,0 -0.3,-0.07 -0.4,-0.17 -0.11,-0.11 -0.16,-0.24 -0.16,-0.4 0,-0.16 0.05,-0.3 0.16,-0.4 0.1,-0.11 0.24,-0.16 0.4,-0.16 0.16,0 0.3,0.05 0.4,0.16 0.11,0.1 0.16,0.24 0.16,0.4 0,0.16 -0.05,0.29 -0.16,0.4 -0.1,0.1 -0.24,0.17 -0.4,0.17zm0.96 -0.05l-0.31 -1.05 0.15 0 0.22 0.77 0.23 -0.77 0.11 0 0.23 0.77 0.23 -0.77 0.13 0 -0.3 1.05 -0.1 0 -0.24 -0.81 -0.24 0.81 -0.11 0 0 0zm1.79 -0.75l0.46 0 0 0.15 -0.46 0 0 -0.15zm1.42 0.75l0 -1.36 0.14 0 0 1.21 0.76 0 0 0.15 -0.9 0zm1.22 -0.4l0.35 0 -0.18 -0.41 -0.17 0.41zm-0.34 0.4l0.47 -1.05 0.09 0 0.47 1.05 -0.16 0 -0.12 -0.26 -0.48 0 -0.11 0.26 -0.16 0zm1.16 0l0 -1.05 0.12 0 0.37 0.62 0.38 -0.62 0.11 0 0 1.05 -0.14 0 0 -0.76 -0.35 0.6 -0.35 -0.6 0 0.76 -0.14 0zm1.29 0l0 -1.06 0.15 0 0 1.06 -0.15 0z"/>
   </g>
  </g>
 </g>
</svg>
