<?xml version="1.0" encoding="UTF-8"?>
<!DOCTYPE svg PUBLIC "-//W3C//DTD SVG 1.1//EN" "http://www.w3.org/Graphics/SVG/1.1/DTD/svg11.dtd">
<!-- Creator: CorelDRAW -->
<svg xmlns="http://www.w3.org/2000/svg" xml:space="preserve" width="20px" height="20px" version="1.1" style="shape-rendering:geometricPrecision; text-rendering:geometricPrecision; image-rendering:optimizeQuality; fill-rule:evenodd; clip-rule:evenodd"
viewBox="0 0 20 20"
 xmlns:xlink="http://www.w3.org/1999/xlink"
 xmlns:xodm="http://www.corel.com/coreldraw/odm/2003">
 <defs>
  <style type="text/css">
   <![CDATA[
    .fil0 {fill:#512729;fill-rule:nonzero}
   ]]>
  </style>
 </defs>
 <g id="Слой_x0020_1">
  <metadata id="CorelCorpID_0Corel-Layer"/>
  <g id="_2242184403504">
   <path class="fil0" d="M4.3 0.06c-1.12,0.17 -2.01,0.61 -2.82,1.42 -0.83,0.83 -1.28,1.76 -1.44,2.93 -0.05,0.46 -0.05,10.72 0,11.18 0.16,1.17 0.61,2.1 1.44,2.93 0.83,0.83 1.76,1.28 2.93,1.44 0.46,0.05 10.72,0.05 11.18,0 1.17,-0.16 2.1,-0.61 2.93,-1.44 0.83,-0.83 1.28,-1.76 1.44,-2.93 0.05,-0.46 0.05,-10.72 0,-11.18 -0.16,-1.17 -0.61,-2.1 -1.44,-2.93 -0.83,-0.83 -1.76,-1.28 -2.93,-1.44 -0.5,-0.06 -10.85,-0.05 -11.29,0.02zm11.7 1.76c0.45,0.16 0.54,0.21 0.91,0.46 0.57,0.4 1.03,1.02 1.26,1.72l0.13 0.39 0 5.61c0,5.36 0,5.62 -0.07,5.84 -0.27,0.85 -0.72,1.48 -1.39,1.93 -0.29,0.19 -0.54,0.31 -0.94,0.44l-0.29 0.09 -5.61 0 -5.61 0 -0.39 -0.13c-1.1,-0.36 -1.86,-1.16 -2.23,-2.33 -0.07,-0.22 -0.07,-0.48 -0.07,-5.84 0,-5.36 0,-5.62 0.07,-5.84 0.28,-0.89 0.77,-1.54 1.49,-1.99 0.3,-0.19 0.83,-0.4 1.15,-0.45 0.1,-0.02 2.67,-0.03 5.71,-0.02l5.52 0 0.36 0.12 0 0z"/>
   <path class="fil0" d="M15.16 3.38c-0.28,0.06 -0.44,0.14 -0.63,0.33 -0.25,0.27 -0.33,0.47 -0.33,0.88 0,0.3 0.01,0.38 0.1,0.55 0.22,0.4 0.58,0.64 1.04,0.67 0.33,0.02 0.5,-0.03 0.78,-0.21 0.78,-0.53 0.69,-1.72 -0.16,-2.12 -0.29,-0.14 -0.52,-0.17 -0.8,-0.1z"/>
   <path class="fil0" d="M9.36 5.04c-1.89,0.26 -3.5,1.58 -4.08,3.34 -0.2,0.6 -0.26,0.95 -0.26,1.62 0,0.67 0.06,1.01 0.26,1.62 0.47,1.41 1.69,2.63 3.11,3.11 0.59,0.19 0.95,0.25 1.61,0.25 0.66,0 1.02,-0.06 1.61,-0.25 1.42,-0.48 2.64,-1.7 3.11,-3.11 0.2,-0.61 0.26,-0.95 0.26,-1.62 0,-0.88 -0.17,-1.59 -0.55,-2.31 -0.72,-1.35 -1.97,-2.28 -3.47,-2.59 -0.38,-0.08 -1.23,-0.11 -1.6,-0.06zm1.64 1.79c0.42,0.14 0.54,0.19 0.86,0.41 0.65,0.44 1.09,1.05 1.35,1.86 0.07,0.26 0.09,0.38 0.09,0.9 0,0.64 -0.05,0.88 -0.28,1.39 -0.29,0.66 -0.97,1.34 -1.63,1.64 -0.51,0.22 -0.75,0.27 -1.39,0.27 -0.64,0 -0.88,-0.05 -1.39,-0.27 -0.66,-0.3 -1.34,-0.98 -1.63,-1.64 -0.23,-0.51 -0.28,-0.75 -0.28,-1.39 0,-0.52 0.02,-0.64 0.09,-0.9 0.14,-0.42 0.25,-0.67 0.48,-0.99 0.44,-0.64 1.05,-1.08 1.81,-1.31 0.39,-0.11 0.45,-0.12 1.04,-0.1 0.46,0.01 0.57,0.03 0.88,0.13l0 0z"/>
  </g>
 </g>
</svg>
