<?xml version="1.0" encoding="UTF-8"?>
<!DOCTYPE svg PUBLIC "-//W3C//DTD SVG 1.1//EN" "http://www.w3.org/Graphics/SVG/1.1/DTD/svg11.dtd">
<!-- Creator: CorelDRAW -->
<svg xmlns="http://www.w3.org/2000/svg" xml:space="preserve" width="18px" height="20px" version="1.1" style="shape-rendering:geometricPrecision; text-rendering:geometricPrecision; image-rendering:optimizeQuality; fill-rule:evenodd; clip-rule:evenodd"
viewBox="0 0 6.36 6.95"
 xmlns:xlink="http://www.w3.org/1999/xlink"
 xmlns:xodm="http://www.corel.com/coreldraw/odm/2003">
 <defs>
  <style type="text/css">
   <![CDATA[
    .fil0 {fill:#512729;fill-rule:nonzero}
   ]]>
  </style>
 </defs>
 <g id="Слой_x0020_1">
  <metadata id="CorelCorpID_0Corel-Layer"/>
  <g id="_2244031612896">
   <path class="fil0" d="M2.79 0c-0.03,0.01 -0.13,0.02 -0.23,0.02 -0.36,0.03 -0.84,0.14 -1.12,0.24 -0.59,0.22 -0.89,0.48 -1.13,0.98 -0.15,0.31 -0.24,0.65 -0.29,1.12 -0.03,0.27 -0.02,1.3 0.01,1.53 0.14,1.07 0.6,1.71 1.41,1.98l0.09 0.03 0 0.38c0,0.23 0.01,0.42 0.02,0.46 0.01,0.09 0.06,0.15 0.13,0.18 0.17,0.09 0.27,0.01 0.73,-0.54 0.17,-0.19 0.25,-0.28 0.26,-0.27 0.01,0 0.17,0.01 0.35,0.01 0.74,0.02 1.43,-0.08 1.98,-0.27 0.66,-0.24 1.09,-0.78 1.25,-1.55 0.08,-0.38 0.13,-1.1 0.11,-1.58 -0.04,-0.77 -0.18,-1.31 -0.46,-1.75 -0.09,-0.14 -0.32,-0.36 -0.45,-0.45 -0.37,-0.24 -0.95,-0.41 -1.64,-0.49 -0.18,-0.02 -0.89,-0.04 -1.02,-0.03l0 0zm1.08 0.52c0.53,0.08 0.96,0.2 1.24,0.37 0.15,0.08 0.33,0.27 0.42,0.42 0.25,0.42 0.37,1.04 0.35,1.86 -0.03,0.99 -0.16,1.46 -0.51,1.83 -0.23,0.24 -0.42,0.34 -0.88,0.46 -0.42,0.11 -0.77,0.15 -1.31,0.16l-0.43 0 -0.14 0.17c-0.44,0.55 -0.75,0.9 -0.8,0.93 -0.02,0.01 -0.04,0.01 -0.05,0.01 -0.05,-0.02 -0.06,-0.07 -0.05,-0.69l0 -0.59 -0.08 -0.03c-0.12,-0.04 -0.31,-0.14 -0.42,-0.21 -0.04,-0.03 -0.13,-0.11 -0.2,-0.17 -0.28,-0.28 -0.44,-0.64 -0.52,-1.19 -0.02,-0.17 -0.02,-1.22 0,-1.43 0.08,-0.6 0.21,-0.96 0.49,-1.28 0.24,-0.29 0.78,-0.52 1.4,-0.61 0.28,-0.04 0.39,-0.04 0.84,-0.04 0.35,0.01 0.48,0.01 0.65,0.03z"/>
   <path class="fil0" d="M3.08 1.27c-0.03,0.02 -0.03,0.09 -0.01,0.12 0.02,0.01 0.06,0.02 0.13,0.03 0.46,0.03 0.81,0.19 1.08,0.48 0.26,0.28 0.4,0.65 0.44,1.14 0.01,0.15 0.02,0.18 0.09,0.18 0.07,0 0.08,-0.05 0.07,-0.2 -0.05,-0.72 -0.33,-1.23 -0.86,-1.54 -0.21,-0.13 -0.5,-0.21 -0.77,-0.23 -0.13,-0.01 -0.15,0 -0.17,0.02z"/>
   <path class="fil0" d="M1.85 1.48c-0.16,0.09 -0.33,0.26 -0.4,0.41 -0.04,0.07 -0.05,0.1 -0.05,0.18 0,0.09 0.01,0.11 0.1,0.33 0.21,0.47 0.31,0.66 0.49,0.94 0.38,0.58 0.9,1.02 1.67,1.4 0.39,0.2 0.51,0.23 0.68,0.15 0.14,-0.06 0.34,-0.29 0.41,-0.45 0.02,-0.06 0.02,-0.16 0,-0.21 -0.04,-0.08 -0.25,-0.26 -0.48,-0.41 -0.19,-0.13 -0.25,-0.15 -0.33,-0.15 -0.11,0 -0.16,0.03 -0.26,0.16 -0.12,0.16 -0.18,0.18 -0.33,0.13 -0.22,-0.07 -0.41,-0.19 -0.58,-0.36 -0.24,-0.23 -0.47,-0.66 -0.45,-0.82 0.01,-0.07 0.04,-0.11 0.16,-0.2 0.17,-0.14 0.19,-0.26 0.1,-0.44 -0.12,-0.22 -0.4,-0.62 -0.49,-0.67 -0.06,-0.03 -0.16,-0.03 -0.24,0.01l0 0z"/>
   <path class="fil0" d="M3.26 1.7c-0.06,0.02 -0.08,0.11 -0.03,0.15 0.01,0.01 0.06,0.02 0.1,0.03 0.15,0.01 0.26,0.05 0.4,0.12 0.12,0.06 0.16,0.08 0.25,0.18 0.18,0.18 0.27,0.39 0.29,0.69 0.01,0.11 0.01,0.13 0.04,0.15 0.04,0.03 0.07,0.03 0.1,-0.01 0.03,-0.02 0.03,-0.04 0.02,-0.16 -0.02,-0.36 -0.17,-0.68 -0.4,-0.87 -0.16,-0.13 -0.43,-0.24 -0.63,-0.26 -0.05,-0.01 -0.09,-0.02 -0.1,-0.02 -0.01,0 -0.03,0 -0.04,0l0 0z"/>
   <path class="fil0" d="M3.36 2.19c-0.01,0.01 -0.02,0.03 -0.03,0.05 -0.01,0.05 0.04,0.11 0.11,0.11 0.06,0 0.16,0.03 0.22,0.07 0.1,0.07 0.15,0.18 0.17,0.36 0.01,0.06 0.02,0.08 0.05,0.09 0.04,0.03 0.09,0.01 0.11,-0.04 0.02,-0.04 -0.01,-0.24 -0.06,-0.34 -0.04,-0.08 -0.12,-0.18 -0.19,-0.22 -0.11,-0.07 -0.33,-0.12 -0.38,-0.08l0 0z"/>
  </g>
 </g>
</svg>
