<?xml version="1.0" standalone="no"?>
<!DOCTYPE svg PUBLIC "-//W3C//DTD SVG 20010904//EN"
 "http://www.w3.org/TR/2001/REC-SVG-20010904/DTD/svg10.dtd">
<svg version="1.0" xmlns="http://www.w3.org/2000/svg"
 width="30.000000pt" height="30.000000pt" viewBox="0 0 512.000000 512.000000"
 preserveAspectRatio="xMidYMid meet">

<g transform="translate(0.000000,512.000000) scale(0.100000,-0.100000)"
fill="#512729" stroke="none">
<path d="M2390 5113 c-30 -2 -107 -10 -170 -19 -450 -60 -869 -236 -1240 -522
-110 -85 -347 -323 -432 -433 -237 -307 -403 -654 -482 -1011 -169 -760 4
-1529 483 -2148 80 -104 309 -336 410 -415 369 -290 772 -465 1236 -537 185
-28 521 -30 700 -4 473 69 874 237 1245 525 104 80 336 309 416 411 291 369
473 796 540 1265 24 165 24 505 0 670 -57 399 -192 758 -404 1075 -514 770
-1377 1199 -2302 1143z m629 -978 c316 -39 422 -70 568 -164 171 -111 317
-271 398 -436 139 -286 164 -987 50 -1430 -70 -271 -371 -577 -660 -668 -142
-45 -431 -77 -763 -84 l-282 -6 -172 -179 c-94 -99 -185 -186 -201 -195 -42
-21 -111 -12 -144 18 -49 47 -53 65 -53 259 0 177 -1 182 -21 187 -12 4 -60
25 -108 48 -211 103 -413 306 -505 507 -71 153 -111 428 -111 763 0 346 40
615 115 771 123 256 396 490 647 554 87 23 310 56 463 69 151 14 630 5 779
-14z"/>
<path d="M2260 3869 c-156 -13 -377 -47 -446 -70 -139 -45 -342 -223 -416
-365 -106 -204 -137 -727 -67 -1132 25 -142 47 -202 108 -288 93 -133 242
-253 371 -301 l70 -26 2 -296 c3 -291 3 -296 23 -296 14 0 108 89 280 265
l258 265 191 6 c325 11 608 50 715 100 172 80 357 270 405 417 48 146 82 487
72 707 -13 273 -47 464 -103 574 -73 146 -274 324 -417 370 -192 63 -705 97
-1046 70z m448 -335 c243 -50 438 -204 542 -427 45 -98 68 -195 77 -322 l6
-94 -26 -12 c-23 -10 -30 -9 -46 5 -15 13 -21 38 -26 109 -16 204 -72 334
-200 462 -120 121 -238 176 -418 197 -96 11 -127 24 -127 53 0 47 80 58 218
29z m-590 -131 c61 -66 176 -234 193 -282 20 -58 4 -98 -68 -167 -64 -61 -66
-64 -60 -104 12 -94 114 -260 214 -349 64 -57 198 -131 258 -142 51 -9 80 6
129 65 46 56 67 68 119 68 41 -1 107 -39 242 -140 137 -103 154 -136 114 -219
-35 -73 -143 -176 -205 -197 -50 -16 -54 -16 -115 4 -176 59 -459 223 -629
365 -140 116 -265 271 -378 465 -72 124 -182 376 -182 417 0 103 173 272 280
273 29 0 42 -9 88 -57z m601 -68 c202 -48 350 -193 396 -387 27 -115 15 -198
-27 -198 -26 0 -48 34 -48 74 0 61 -27 163 -57 219 -33 60 -115 136 -180 167
-26 12 -87 31 -135 40 -102 21 -108 24 -108 54 0 49 45 58 159 31z m46 -212
c97 -33 171 -143 163 -244 -3 -49 -27 -71 -55 -53 -18 11 -21 19 -43 104 -15
57 -67 107 -118 115 -68 10 -87 19 -90 43 -8 52 51 67 143 35z"/>
</g>
</svg>
