<?xml version="1.0" encoding="UTF-8"?>
<!DOCTYPE svg PUBLIC "-//W3C//DTD SVG 1.1//EN" "http://www.w3.org/Graphics/SVG/1.1/DTD/svg11.dtd">
<!-- Creator: CorelDRAW -->
<svg xmlns="http://www.w3.org/2000/svg" xml:space="preserve" width="500px" height="500px" version="1.1" style="shape-rendering:geometricPrecision; text-rendering:geometricPrecision; image-rendering:optimizeQuality; fill-rule:evenodd; clip-rule:evenodd"
viewBox="0 0 513.61 513.33"
 xmlns:xlink="http://www.w3.org/1999/xlink"
 xmlns:xodm="http://www.corel.com/coreldraw/odm/2003">
 <defs>
  <style type="text/css">
   <![CDATA[
    .str0 {stroke:#2B2A29;stroke-width:0.57;stroke-miterlimit:22.9256}
    .fil1 {fill:#7688A1}
    .fil2 {fill:white}
    .fil0 {fill:#B557A1;fill-rule:nonzero}
   ]]>
  </style>
 </defs>
 <g id="Слой_x0020_1">
  <metadata id="CorelCorpID_0Corel-Layer"/>
  <g id="_1475053840816">
   <g>
    <path class="fil0" d="M123.83 0.62c-61.96,5.73 -111.07,51.02 -122.02,112.49 -1.71,9.94 -1.81,18.68 -1.81,143.62 0,124.94 0.1,133.67 1.81,143.62 10.14,57.24 53.93,101.03 111.18,111.18 9.94,1.7 18.68,1.8 143.11,1.8 140.11,0 139.1,0 156.98,-4.62 46.6,-12.25 84.67,-51.22 96.12,-98.52 4.42,-18.18 4.62,-28.32 4.31,-162.5 -0.3,-117.11 -0.5,-126.75 -2.2,-135.59 -10.95,-56.94 -53.13,-99.12 -110.08,-110.07 -8.94,-1.71 -18.08,-1.81 -139.1,-2.01 -71.31,-0.1 -133.48,0.2 -138.3,0.6zm339.87 93.1c6.33,2.82 12.35,9.34 14.86,15.97 3.82,10.45 2.41,25.91 -3.61,37.87 -5.12,10.04 -16.17,16.97 -20.09,12.65 -2.71,-3.01 -8.43,-4.32 -18.98,-4.32 -32.04,0.2 -56.54,18.88 -76.13,58.15 -10.34,20.79 -18.18,45.5 -32.84,103.95 -15.87,63.17 -23,82.06 -35.25,94.31 -7.23,7.03 -15.57,9.24 -27.62,7.23 -18.48,-3.11 -30.33,-14.86 -36.16,-35.75 -2.51,-9.14 -3.01,-38.67 -1,-54.64 2.21,-16.57 5.72,-34.45 11.75,-59.26 2.71,-11.24 4.92,-20.69 4.92,-21.09 0,-0.3 -3.82,8.44 -8.44,19.49 -13.05,31.63 -17.27,40.87 -27.31,60.86 -31.54,62.27 -64.38,90.59 -107.87,93 -34.05,1.91 -59.25,-16.37 -65.88,-47.91 -2.01,-9.64 -1.41,-31.63 1.1,-41.17 2.91,-10.85 8.84,-22.5 14.66,-28.63l5.33 -5.62 4.02 7.83c5.82,11.15 15.76,21.39 25.51,26.11 6.62,3.32 8.53,3.82 16.77,4.12 37.96,1.71 67.49,-22.49 100.23,-82.15 4.32,-7.94 14.86,-28.52 23.3,-45.7 8.44,-17.07 17.68,-35.35 20.59,-40.47 3.61,-6.43 4.72,-9.44 3.82,-9.75 -3.92,-1.3 -22,-2.81 -32.95,-2.81 -28.82,0 -42.18,7.74 -42.18,24.41 0,9.94 5.02,18.88 13.66,24.2l3.52 2.11 -2.31 2.51c-7.34,7.84 -22.4,14.36 -33.15,14.36 -27.62,0 -48,-19.98 -48,-47.1 0,-14.76 4.82,-26.11 15.46,-36.86 18.08,-18.08 43.29,-21.99 90.69,-13.96 13.66,2.31 38.87,8.24 44.8,10.45 4.42,1.7 4.92,1.4 9.64,-4.92 8.64,-11.65 18.88,-17.38 30.63,-17.38 4.42,0 8.54,0.6 10.85,1.71 9.44,4.12 14.66,12.55 13.46,21.49 -2.31,16.97 -12.66,27.22 -30.03,29.83 -4.62,0.7 -4.73,0.8 -6.23,5.92 -2.21,7.34 -7.03,31.04 -9.44,46.3 -11.35,71.41 -10.45,125.24 2.11,129.96 3.51,1.31 5.72,0.21 8.33,-4.41 3.92,-6.63 6.93,-16.38 17.58,-57.35 14.36,-55.14 22.3,-79.65 34.65,-107.16 23.5,-52.03 54.03,-81.15 92.6,-88.08 8.63,-1.61 25.31,-0.61 30.63,1.7l0 0z"/>
   </g>
   <path class="fil1 str0" d="M224.97 209.02c-8.44,17.18 -18.98,37.76 -23.3,45.7 -32.74,59.66 -62.27,83.86 -100.23,82.15 -8.24,-0.3 -10.15,-0.8 -16.77,-4.12 -9.75,-4.72 -19.69,-14.96 -25.51,-26.11l-4.02 -7.83 -5.33 5.62c-5.82,6.13 -11.75,17.78 -14.66,28.63 -2.51,9.54 -3.11,31.53 -1.1,41.17 6.63,31.54 31.83,49.82 65.88,47.91 43.49,-2.41 76.33,-30.73 107.87,-93 10.04,-19.99 14.26,-29.23 27.31,-60.86 4.62,-11.05 8.44,-19.79 8.44,-19.49 0,0.4 -2.21,9.85 -4.92,21.09 -6.03,24.81 -9.54,42.69 -11.75,59.26 -2.01,15.97 -1.51,45.5 1,54.64 5.83,20.89 17.68,32.64 36.16,35.75 12.05,2.01 20.39,-0.2 27.62,-7.23 12.25,-12.25 19.38,-31.14 35.25,-94.31 14.66,-58.45 22.5,-83.16 32.84,-103.95 19.59,-39.27 44.09,-57.95 76.13,-58.15 10.55,0 16.27,1.31 18.98,4.32 3.92,4.32 14.97,-2.61 20.09,-12.65 6.02,-11.96 7.43,-27.42 3.61,-37.87 -2.51,-6.63 -8.53,-13.15 -14.86,-15.97 -5.32,-2.31 -22,-3.31 -30.63,-1.7 -38.57,6.93 -69.1,36.05 -92.6,88.08 -12.35,27.51 -20.29,52.02 -34.65,107.16 -10.65,40.97 -13.66,50.72 -17.58,57.35 -2.61,4.62 -4.82,5.72 -8.33,4.41 -12.56,-4.72 -13.46,-58.55 -2.11,-129.96 2.41,-15.26 7.23,-38.96 9.44,-46.3 1.5,-5.12 1.61,-5.22 6.23,-5.92 17.37,-2.61 27.72,-12.86 30.03,-29.83 1.2,-8.94 -4.02,-17.37 -13.46,-21.49 -2.31,-1.11 -6.43,-1.71 -10.85,-1.71 -11.75,0 -21.99,5.73 -30.63,17.38 -4.72,6.32 -5.22,6.62 -9.64,4.92 -5.93,-2.21 -31.14,-8.14 -44.8,-10.45 -47.4,-8.03 -72.61,-4.12 -90.69,13.96 -10.64,10.75 -15.46,22.1 -15.46,36.86 0,27.12 20.38,47.1 48,47.1 10.75,0 25.81,-6.52 33.15,-14.36l2.31 -2.51 -3.52 -2.11c-8.64,-5.32 -13.66,-14.26 -13.66,-24.2 0,-16.67 13.36,-24.41 42.18,-24.41 10.95,0 29.03,1.51 32.95,2.81 0.9,0.31 -0.21,3.32 -3.82,9.75 -2.91,5.12 -12.15,23.4 -20.59,40.47z"/>
   <path class="fil2 str0" d="M187.91 204.6c-8.64,-5.32 -13.66,-14.26 -13.66,-24.2 0,-16.67 13.36,-24.41 42.18,-24.41 10.95,0 29.03,1.51 32.95,2.81 0.9,0.31 -0.21,3.32 -3.82,9.75 -2.91,5.12 -12.15,23.4 -20.59,40.47 -8.44,17.18 -18.98,37.76 -23.3,45.7 -32.74,59.66 -62.27,83.86 -100.23,82.15 -8.24,-0.3 -10.15,-0.8 -16.77,-4.12 -9.75,-4.72 -19.69,-14.96 -25.51,-26.11l-4.02 -7.83 -5.33 5.62c-5.82,6.13 -11.75,17.78 -14.66,28.63 -2.51,9.54 -3.11,31.53 -1.1,41.17 6.63,31.54 31.83,49.82 65.88,47.91 43.49,-2.41 76.33,-30.73 107.87,-93 10.04,-19.99 14.26,-29.23 27.31,-60.86 4.62,-11.05 8.44,-19.79 8.44,-19.49 0,0.4 -2.21,9.85 -4.92,21.09 -6.03,24.81 -9.54,42.69 -11.75,59.26 -2.01,15.97 -1.51,45.5 1,54.64 5.83,20.89 17.68,32.64 36.16,35.75 12.05,2.01 20.39,-0.2 27.62,-7.23 12.25,-12.25 19.38,-31.14 35.25,-94.31 14.66,-58.45 22.5,-83.16 32.84,-103.95 19.59,-39.27 44.09,-57.95 76.13,-58.15 10.55,0 16.27,1.31 18.98,4.32 3.92,4.32 14.97,-2.61 20.09,-12.65 6.02,-11.96 7.43,-27.42 3.61,-37.87 -2.51,-6.63 -8.53,-13.15 -14.86,-15.97 -5.32,-2.31 -22,-3.31 -30.63,-1.7 -38.57,6.93 -69.1,36.05 -92.6,88.08 -12.35,27.51 -20.29,52.02 -34.65,107.16 -10.65,40.97 -13.66,50.72 -17.58,57.35 -2.61,4.62 -4.82,5.72 -8.33,4.41 -12.56,-4.72 -13.46,-58.55 -2.11,-129.96 2.41,-15.26 7.23,-38.96 9.44,-46.3 1.5,-5.12 1.61,-5.22 6.23,-5.92 17.37,-2.61 27.72,-12.86 30.03,-29.83 1.2,-8.94 -4.02,-17.37 -13.46,-21.49 -2.31,-1.11 -6.43,-1.71 -10.85,-1.71 -11.75,0 -21.99,5.73 -30.63,17.38 -4.72,6.32 -5.22,6.62 -9.64,4.92 -5.93,-2.21 -31.14,-8.14 -44.8,-10.45 -47.4,-8.03 -72.61,-4.12 -90.69,13.96 -10.64,10.75 -15.46,22.1 -15.46,36.86 0,27.12 20.38,47.1 48,47.1 10.75,0 25.81,-6.52 33.15,-14.36l2.31 -2.51 -3.52 -2.11z"/>
  </g>
 </g>
</svg>
