<?xml version="1.0" encoding="UTF-8"?>
<!DOCTYPE svg PUBLIC "-//W3C//DTD SVG 1.1//EN" "http://www.w3.org/Graphics/SVG/1.1/DTD/svg11.dtd">
<!-- Creator: CorelDRAW -->
<svg xmlns="http://www.w3.org/2000/svg" xml:space="preserve" width="191px" height="50px" version="1.1" style="shape-rendering:geometricPrecision; text-rendering:geometricPrecision; image-rendering:optimizeQuality; fill-rule:evenodd; clip-rule:evenodd"
viewBox="0 0 27.16 7.1"
 xmlns:xlink="http://www.w3.org/1999/xlink"
 xmlns:xodm="http://www.corel.com/coreldraw/odm/2003">
 <defs>
  <style type="text/css">
   <![CDATA[
    .fil0 {fill:black;fill-rule:nonzero}
    .fil1 {fill:#2B2A29;fill-rule:nonzero}
   ]]>
  </style>
 </defs>
 <g id="Слой_x0020_1">
  <metadata id="CorelCorpID_0Corel-Layer"/>
  <g id="_2744533669504">
   <g>
    <path class="fil0" d="M2.76 0.34c-0.43,0.06 -1.04,0.32 -1.5,0.65 -0.32,0.22 -0.8,0.68 -1.05,1 -0.11,0.14 -0.21,0.27 -0.21,0.28 -0.01,0.02 0.18,-0.09 0.41,-0.25 0.78,-0.5 1.21,-0.67 1.94,-0.74 0.62,-0.06 1.31,0.06 2.61,0.47l0.49 0.15 0.67 -0.3c0.36,-0.17 0.66,-0.32 0.66,-0.33 0,-0.02 -0.12,-0.06 -0.94,-0.34 -1.35,-0.45 -2.45,-0.66 -3.08,-0.59l0 0z"/>
    <path class="fil0" d="M6.64 2.04c-1.4,0.65 -2.64,1.2 -3.38,1.51 -0.65,0.26 -1.2,0.51 -1.24,0.54 -0.11,0.1 -0.14,0.24 -0.14,0.71 0.01,0.66 0.03,0.67 0.21,0.1 0.17,-0.58 0.19,-0.61 0.28,-0.66 0.15,-0.08 2.23,-0.85 4.42,-1.64 1.24,-0.45 2.3,-0.84 2.37,-0.87 0.06,-0.03 0.14,-0.1 0.17,-0.15 0.1,-0.17 0.04,-0.44 -0.13,-0.53 -0.2,-0.1 -0.21,-0.09 -2.56,0.99z"/>
    <path class="fil0" d="M7.34 2.12c-0.39,0.14 -0.68,0.26 -0.65,0.27 0.13,0.04 1.17,0.55 1.41,0.69 0.15,0.08 0.28,0.15 0.28,0.15 0,-0.01 0.01,-0.28 0.02,-0.61l0.03 -0.6 -0.16 -0.08c-0.08,-0.04 -0.17,-0.07 -0.19,-0.07 -0.02,0 -0.36,0.11 -0.74,0.25l0 0z"/>
    <path class="fil0" d="M0.84 4.3c-0.06,0.05 -0.05,0.08 0.07,0.15 0.13,0.08 0.14,0.08 0.14,-0.03 0,-0.06 -0.02,-0.1 -0.08,-0.12 -0.09,-0.05 -0.08,-0.05 -0.13,0l0 0z"/>
    <path class="fil0" d="M0.83 4.8c-0.2,0.1 -0.25,0.18 -0.15,0.2 0.08,0.02 0.4,-0.14 0.4,-0.19 0,-0.11 -0.05,-0.11 -0.25,-0.01l0 0z"/>
    <path class="fil0" d="M1.57 4.83c-0.01,0.04 0,0.08 0.02,0.1 0.02,0.02 0.17,0.14 0.33,0.26l0.29 0.23 -0.27 0.27c-0.27,0.26 -0.31,0.32 -0.22,0.36 0.04,0.01 0.14,-0.07 0.34,-0.26l0.28 -0.28 0.2 0.11 0.19 0.11 -0.19 0.28c-0.1,0.16 -0.18,0.3 -0.17,0.32 0,0.02 0.04,0.03 0.07,0.03 0.04,0 0.11,-0.08 0.23,-0.25 0.09,-0.14 0.18,-0.27 0.19,-0.28 0.03,-0.03 0.43,0.12 0.43,0.16 0,0.01 -0.04,0.15 -0.1,0.3 -0.07,0.2 -0.08,0.29 -0.06,0.31 0.07,0.07 0.12,-0.01 0.22,-0.29 0.06,-0.16 0.11,-0.29 0.11,-0.3 0.01,-0.01 0.45,0.08 0.47,0.09 0.01,0.01 0,0.14 -0.02,0.29 -0.02,0.23 -0.02,0.29 0.02,0.33 0.07,0.07 0.11,0 0.14,-0.28 0.02,-0.15 0.03,-0.28 0.03,-0.3 0,-0.02 0.1,-0.02 0.25,-0.02l0.25 0.01 0.03 0.28c0.05,0.31 0.1,0.41 0.17,0.33 0.04,-0.03 0.04,-0.08 0,-0.3 -0.02,-0.15 -0.05,-0.28 -0.05,-0.3 0,-0.02 0.08,-0.04 0.17,-0.06 0.09,-0.01 0.19,-0.02 0.23,-0.03 0.06,-0.02 0.08,0.02 0.2,0.29 0.07,0.18 0.14,0.33 0.16,0.34 0.02,0.01 0.05,0 0.07,-0.03 0.04,-0.04 0.03,-0.08 -0.08,-0.34 -0.06,-0.16 -0.11,-0.3 -0.1,-0.31 0.01,-0.01 0.1,-0.04 0.2,-0.07 0.13,-0.04 0.2,-0.04 0.22,-0.02 0.03,0.02 0.13,0.15 0.23,0.3 0.17,0.25 0.26,0.32 0.3,0.22 0.01,-0.03 -0.07,-0.17 -0.19,-0.33 -0.11,-0.16 -0.19,-0.29 -0.19,-0.3 0.01,0 0.09,-0.03 0.18,-0.06l0.17 -0.06 0.26 0.27c0.14,0.15 0.28,0.27 0.3,0.26 0.1,-0.03 0.05,-0.13 -0.18,-0.36l-0.24 -0.24 0.14 -0.05c0.07,-0.03 0.14,-0.05 0.16,-0.05 0.01,0 0.18,0.14 0.36,0.31 0.23,0.21 0.36,0.31 0.39,0.3 0.09,-0.04 0.04,-0.12 -0.25,-0.39 -0.16,-0.15 -0.3,-0.28 -0.3,-0.29 0,-0.03 0.26,-0.09 0.41,-0.1 0.15,-0.01 0.21,-0.06 0.15,-0.13 -0.03,-0.04 -0.07,-0.05 -0.2,-0.03 -0.2,0.02 -0.36,0.07 -0.99,0.32 -1,0.38 -1.32,0.45 -1.9,0.45 -0.96,0 -1.66,-0.27 -2.52,-0.96 -0.15,-0.13 -0.29,-0.23 -0.3,-0.23 -0.01,0 -0.03,0.03 -0.04,0.07l0 0z"/>
    <path class="fil0" d="M0.74 5.37c-0.63,0.22 -0.65,0.23 -0.65,0.28 0,0.08 0.06,0.07 0.4,-0.05 0.19,-0.07 0.36,-0.12 0.36,-0.12 0.01,0.01 -0.11,0.1 -0.26,0.21 -0.26,0.2 -0.35,0.31 -0.24,0.31 0.03,0 0.19,-0.1 0.36,-0.23 0.17,-0.13 0.31,-0.23 0.31,-0.22 0,0.01 -0.09,0.15 -0.2,0.3 -0.21,0.3 -0.24,0.37 -0.15,0.37 0.03,0 0.15,-0.14 0.32,-0.38 0.34,-0.47 0.36,-0.51 0.31,-0.57 -0.06,-0.07 -0.13,-0.05 -0.56,0.1l0 0z"/>
   </g>
   <g>
    <path class="fil1" d="M12.68 1.77c0.36,-0.64 0.68,-1.09 0.95,-1.37 0.27,-0.27 0.53,-0.4 0.79,-0.4 0.17,0 0.3,0.05 0.4,0.15 0.1,0.1 0.15,0.23 0.15,0.39 0,0.17 -0.12,0.63 -0.37,1.39 -0.06,0.19 -0.11,0.33 -0.15,0.44 -0.02,0.08 -0.06,0.2 -0.11,0.35 -0.15,0.42 -0.22,0.69 -0.22,0.79 0,0.12 0.04,0.2 0.11,0.26 0.07,0.05 0.2,0.08 0.37,0.09l-0.1 0.36 -0.1 0c-0.31,0 -0.55,-0.06 -0.71,-0.18 -0.16,-0.12 -0.24,-0.29 -0.24,-0.53 0,-0.2 0.12,-0.64 0.37,-1.31 0.09,-0.24 0.16,-0.43 0.2,-0.56 0.09,-0.24 0.15,-0.43 0.19,-0.56 0.04,-0.14 0.06,-0.24 0.06,-0.31 0,-0.05 -0.02,-0.09 -0.04,-0.12 -0.02,-0.03 -0.06,-0.04 -0.1,-0.04 -0.07,0 -0.16,0.05 -0.27,0.14 -0.11,0.1 -0.23,0.24 -0.38,0.44 -0.22,0.29 -0.42,0.58 -0.6,0.87 -0.18,0.29 -0.34,0.57 -0.46,0.82 -0.18,0.37 -0.34,0.75 -0.48,1.13 -0.03,0.09 -0.05,0.14 -0.06,0.15 -0.02,0.03 -0.07,0.05 -0.13,0.07 -0.06,0.02 -0.14,0.03 -0.24,0.03 -0.1,0 -0.16,-0.01 -0.2,-0.03 -0.04,-0.02 -0.06,-0.06 -0.06,-0.1 0,-0.06 0.06,-0.22 0.18,-0.49 0.06,-0.13 0.11,-0.24 0.15,-0.33 0.21,-0.49 0.38,-0.95 0.5,-1.37 0.12,-0.42 0.18,-0.74 0.18,-0.95 0,-0.12 -0.03,-0.22 -0.08,-0.28 -0.06,-0.07 -0.14,-0.1 -0.24,-0.1 -0.17,0 -0.32,0.11 -0.46,0.32 -0.13,0.21 -0.2,0.45 -0.2,0.73 0,0.09 0.01,0.18 0.03,0.27 0.02,0.09 0.04,0.18 0.08,0.28 -0.03,0.02 -0.06,0.03 -0.1,0.04 -0.03,0.01 -0.07,0.02 -0.11,0.02 -0.15,0 -0.26,-0.06 -0.34,-0.17 -0.08,-0.11 -0.12,-0.28 -0.12,-0.5 0,-0.42 0.14,-0.79 0.4,-1.11 0.26,-0.31 0.57,-0.47 0.92,-0.47 0.24,0 0.43,0.08 0.58,0.24 0.14,0.16 0.21,0.38 0.21,0.65 0,0.11 -0.01,0.23 -0.03,0.37 -0.03,0.14 -0.07,0.3 -0.12,0.49zm4.42 0.46c-0.05,-0.04 -0.09,-0.07 -0.14,-0.09 -0.05,-0.02 -0.1,-0.02 -0.15,-0.02 -0.1,0 -0.22,0.04 -0.36,0.13 -0.14,0.09 -0.27,0.22 -0.39,0.38 -0.12,0.14 -0.21,0.3 -0.28,0.46 -0.06,0.16 -0.1,0.3 -0.1,0.42 0,0.09 0.02,0.16 0.05,0.2 0.03,0.04 0.07,0.06 0.14,0.06 0.17,0 0.37,-0.13 0.58,-0.39 0.21,-0.26 0.42,-0.65 0.65,-1.15zm-0.27 1.02c-0.19,0.34 -0.38,0.59 -0.57,0.74 -0.19,0.16 -0.39,0.24 -0.61,0.24 -0.1,0 -0.19,-0.01 -0.26,-0.04 -0.08,-0.03 -0.14,-0.07 -0.18,-0.13 -0.09,0.05 -0.2,0.09 -0.31,0.11 -0.11,0.03 -0.25,0.04 -0.4,0.05l0.1 -0.36c0.1,-0.01 0.19,-0.02 0.27,-0.04 0.08,-0.02 0.15,-0.05 0.21,-0.08 -0.01,-0.04 -0.01,-0.08 -0.02,-0.12 0,-0.04 0,-0.09 0,-0.13 0,-0.15 0.03,-0.31 0.1,-0.49 0.06,-0.18 0.15,-0.35 0.27,-0.52 0.18,-0.26 0.38,-0.46 0.59,-0.59 0.22,-0.14 0.45,-0.2 0.68,-0.2 0.12,0 0.22,0.01 0.3,0.05 0.08,0.03 0.16,0.09 0.24,0.16l0.04 -0.12c0.02,-0.08 0.04,-0.12 0.07,-0.14 0.02,-0.02 0.05,-0.03 0.1,-0.03 0.12,0 0.23,0.02 0.32,0.06 0.1,0.04 0.14,0.09 0.14,0.15 0,0.02 -0.04,0.1 -0.11,0.25 -0.08,0.16 -0.15,0.3 -0.21,0.44 -0.12,0.27 -0.21,0.5 -0.27,0.69 -0.06,0.19 -0.09,0.34 -0.09,0.45 0,0.07 0.03,0.12 0.07,0.14 0.05,0.03 0.15,0.05 0.31,0.07l-0.11 0.36 -0.05 0c-0.28,0 -0.47,-0.03 -0.59,-0.09 -0.11,-0.06 -0.17,-0.16 -0.17,-0.3 0,-0.06 0.01,-0.14 0.03,-0.23 0.02,-0.09 0.06,-0.21 0.11,-0.35zm0.67 0.97l0.11 -0.36c0.2,-0.02 0.35,-0.09 0.47,-0.21 0.11,-0.11 0.21,-0.32 0.29,-0.63l0.23 -0.8 -0.26 0c-0.04,0 -0.07,0 -0.08,-0.01 -0.02,-0.02 -0.02,-0.03 -0.02,-0.06 0,0 0,-0.01 0,-0.01 0,-0.01 0,-0.02 0.01,-0.03l0.04 -0.13c0.01,-0.04 0.03,-0.06 0.06,-0.07 0.02,-0.01 0.07,-0.02 0.15,-0.02l0.2 0 0.26 -0.87c0.02,-0.05 0.03,-0.11 0.05,-0.2 0.06,-0.23 0.17,-0.35 0.34,-0.35 0.12,0 0.21,0.02 0.27,0.05 0.07,0.03 0.1,0.07 0.1,0.12 0,0.04 -0.02,0.11 -0.06,0.21 -0.02,0.05 -0.04,0.1 -0.05,0.13l-0.31 0.91 0.46 0c0.03,0 0.06,0 0.07,0.01 0.02,0.01 0.03,0.03 0.03,0.05 0,0.01 0,0.02 0,0.03 0,0 0,0.01 0,0.02l-0.05 0.13c-0.01,0.03 -0.03,0.05 -0.06,0.07 -0.03,0.01 -0.08,0.02 -0.15,0.02l-0.4 0 -0.26 0.87c-0.03,0.1 -0.05,0.18 -0.07,0.25 -0.01,0.07 -0.02,0.13 -0.02,0.17 0,0.11 0.05,0.19 0.15,0.24 0.09,0.06 0.24,0.09 0.43,0.11l-0.11 0.36 -0.06 0c-0.24,0 -0.44,-0.03 -0.6,-0.09 -0.16,-0.05 -0.28,-0.13 -0.35,-0.24 -0.11,0.1 -0.24,0.17 -0.38,0.23 -0.14,0.06 -0.28,0.09 -0.43,0.1zm4.43 -1.99c-0.05,-0.04 -0.09,-0.07 -0.14,-0.09 -0.05,-0.02 -0.1,-0.02 -0.15,-0.02 -0.1,0 -0.22,0.04 -0.36,0.13 -0.14,0.09 -0.27,0.22 -0.39,0.38 -0.12,0.14 -0.21,0.3 -0.28,0.46 -0.07,0.16 -0.1,0.3 -0.1,0.42 0,0.09 0.02,0.16 0.05,0.2 0.03,0.04 0.07,0.06 0.14,0.06 0.17,0 0.37,-0.13 0.58,-0.39 0.21,-0.26 0.42,-0.65 0.65,-1.15zm-0.27 1.02c-0.19,0.34 -0.38,0.59 -0.57,0.74 -0.19,0.16 -0.39,0.24 -0.61,0.24 -0.1,0 -0.19,-0.01 -0.26,-0.04 -0.08,-0.03 -0.14,-0.07 -0.18,-0.13 -0.09,0.05 -0.2,0.09 -0.31,0.11 -0.12,0.03 -0.25,0.04 -0.4,0.05l0.1 -0.36c0.1,-0.01 0.19,-0.02 0.27,-0.04 0.08,-0.02 0.15,-0.05 0.21,-0.08 -0.01,-0.04 -0.01,-0.08 -0.02,-0.12 0,-0.04 0,-0.09 0,-0.13 0,-0.15 0.03,-0.31 0.09,-0.49 0.07,-0.18 0.16,-0.35 0.28,-0.52 0.18,-0.26 0.37,-0.46 0.59,-0.59 0.22,-0.14 0.45,-0.2 0.68,-0.2 0.12,0 0.22,0.01 0.3,0.05 0.08,0.03 0.16,0.09 0.24,0.16l0.04 -0.12c0.02,-0.08 0.04,-0.12 0.07,-0.14 0.02,-0.02 0.05,-0.03 0.1,-0.03 0.12,0 0.23,0.02 0.32,0.06 0.1,0.04 0.14,0.09 0.14,0.15 0,0.02 -0.04,0.1 -0.11,0.25 -0.08,0.16 -0.15,0.3 -0.21,0.44 -0.12,0.27 -0.21,0.5 -0.27,0.69 -0.06,0.19 -0.09,0.34 -0.09,0.45 0,0.07 0.03,0.12 0.07,0.14 0.05,0.03 0.15,0.05 0.31,0.07l-0.11 0.36 -0.05 0c-0.28,0 -0.47,-0.03 -0.59,-0.09 -0.11,-0.06 -0.17,-0.16 -0.17,-0.3 0,-0.06 0.01,-0.14 0.03,-0.23 0.02,-0.09 0.06,-0.21 0.11,-0.35zm0.67 0.97l0.1 -0.36c0.1,0 0.2,-0.03 0.3,-0.09 0.11,-0.05 0.23,-0.14 0.36,-0.26 0.06,-0.4 0.14,-0.82 0.25,-1.26 0.1,-0.43 0.23,-0.86 0.37,-1.28 0.12,-0.35 0.23,-0.59 0.33,-0.73 0.1,-0.13 0.22,-0.2 0.36,-0.2 0.09,0 0.16,0.04 0.22,0.11 0.06,0.07 0.09,0.17 0.09,0.28 0,0.14 -0.06,0.32 -0.16,0.53 -0.11,0.22 -0.25,0.44 -0.43,0.66 -0.14,0.44 -0.25,0.85 -0.33,1.22 -0.08,0.37 -0.12,0.62 -0.12,0.74 0,0.1 0.02,0.17 0.07,0.21 0.05,0.04 0.13,0.07 0.24,0.07l-0.1 0.36 -0.07 0c-0.2,0 -0.35,-0.03 -0.47,-0.09 -0.11,-0.05 -0.18,-0.14 -0.21,-0.26 -0.12,0.11 -0.25,0.19 -0.38,0.25 -0.13,0.06 -0.27,0.09 -0.42,0.1zm2.34 -0.22c-0.14,0.06 -0.27,0.11 -0.41,0.15 -0.13,0.04 -0.26,0.06 -0.39,0.07l0.11 -0.36c0.11,-0.01 0.21,-0.03 0.31,-0.06 0.09,-0.02 0.19,-0.07 0.28,-0.12 0.01,-0.17 0.03,-0.36 0.08,-0.56 0.04,-0.2 0.11,-0.43 0.21,-0.71 0.12,-0.32 0.21,-0.53 0.27,-0.63 0.06,-0.09 0.12,-0.14 0.19,-0.14 0.14,0 0.24,0.02 0.31,0.05 0.08,0.03 0.11,0.08 0.11,0.15 0,0.04 -0.04,0.14 -0.11,0.3 -0.08,0.16 -0.14,0.29 -0.18,0.39 -0.1,0.24 -0.17,0.43 -0.21,0.57 -0.04,0.15 -0.05,0.28 -0.05,0.39 0,0.07 0.01,0.12 0.04,0.15 0.02,0.04 0.07,0.06 0.13,0.06 0.13,0 0.28,-0.1 0.45,-0.3 0.17,-0.2 0.33,-0.47 0.48,-0.8 0.07,-0.16 0.14,-0.35 0.21,-0.57 0.07,-0.24 0.16,-0.36 0.26,-0.36 0.11,0 0.2,0.02 0.28,0.06 0.08,0.04 0.12,0.08 0.12,0.14 0,0.04 -0.02,0.1 -0.07,0.2 -0.03,0.08 -0.05,0.14 -0.07,0.18l-0.61 1.68c0.1,-0.02 0.27,-0.05 0.51,-0.07 0.02,0 0.04,0 0.05,0l-0.11 0.36c-0.16,0.02 -0.29,0.03 -0.38,0.05 -0.08,0.01 -0.16,0.03 -0.23,0.05 -0.12,0.43 -0.26,0.75 -0.41,0.96 -0.15,0.21 -0.32,0.32 -0.52,0.32 -0.09,0 -0.16,-0.03 -0.21,-0.07 -0.05,-0.05 -0.07,-0.12 -0.07,-0.21 0,-0.16 0.06,-0.33 0.19,-0.49 0.13,-0.17 0.3,-0.3 0.51,-0.4 0.09,-0.21 0.17,-0.42 0.25,-0.62 0.07,-0.2 0.14,-0.4 0.21,-0.59 -0.19,0.35 -0.38,0.61 -0.56,0.77 -0.18,0.16 -0.37,0.24 -0.57,0.24 -0.09,0 -0.18,-0.02 -0.25,-0.06 -0.08,-0.05 -0.13,-0.1 -0.15,-0.17z"/>
    <path class="fil1" d="M10.74 7.06l0 -1.31 0.14 0 0 1.16 0.74 0 0 0.15 -0.88 0zm1.18 -0.39l0.34 0 -0.17 -0.39 -0.17 0.39zm-0.32 0.39l0.44 -1.01 0.09 0 0.45 1.01 -0.15 0 -0.11 -0.25 -0.46 0 -0.12 0.25 -0.14 0zm1.03 -0.13l0.07 -0.13c0.06,0.05 0.12,0.08 0.19,0.11 0.07,0.03 0.14,0.04 0.21,0.04 0.07,0 0.14,-0.02 0.19,-0.06 0.04,-0.03 0.07,-0.08 0.07,-0.14 0,-0.06 -0.03,-0.1 -0.07,-0.13 -0.04,-0.03 -0.11,-0.04 -0.2,-0.04 -0.16,-0.01 -0.27,-0.03 -0.33,-0.07 -0.06,-0.04 -0.09,-0.11 -0.09,-0.2 0,-0.09 0.03,-0.16 0.1,-0.21 0.06,-0.05 0.15,-0.08 0.26,-0.08 0.07,0 0.15,0.01 0.22,0.04 0.07,0.02 0.14,0.06 0.2,0.11l-0.07 0.13c-0.05,-0.04 -0.11,-0.08 -0.17,-0.1 -0.07,-0.02 -0.13,-0.04 -0.18,-0.04 -0.07,0 -0.12,0.02 -0.16,0.04 -0.04,0.03 -0.06,0.07 -0.06,0.11 0,0.04 0.02,0.08 0.06,0.1 0.04,0.02 0.11,0.02 0.21,0.02 0.14,0 0.24,0.03 0.31,0.09 0.07,0.05 0.11,0.13 0.11,0.24 0,0.1 -0.04,0.18 -0.11,0.24 -0.07,0.06 -0.16,0.1 -0.28,0.1 -0.08,0 -0.17,-0.02 -0.25,-0.05 -0.08,-0.02 -0.16,-0.06 -0.23,-0.12zm1.25 -0.34l0 0.47 -0.14 0 0 -1.01 0.14 0 0 0.39 0.61 0 0 -0.39 0.14 0 0 1.01 -0.14 0 0 -0.47 -0.61 0zm1.64 -0.25l0.44 0 0 0.14 -0.44 0 0 -0.14zm1.49 -0.07l0.54 0c0.06,0 0.11,-0.02 0.14,-0.05 0.03,-0.03 0.04,-0.07 0.04,-0.13 0,-0.07 -0.01,-0.11 -0.04,-0.14 -0.03,-0.03 -0.08,-0.05 -0.14,-0.05l-0.54 0 0 0.37zm0 0.64l0.59 0c0.07,0 0.12,-0.02 0.15,-0.06 0.04,-0.05 0.06,-0.11 0.06,-0.18 0,-0.08 -0.02,-0.14 -0.06,-0.18 -0.03,-0.05 -0.08,-0.07 -0.15,-0.07l-0.59 0 0 0.49zm-0.14 0.15l0 -1.31 0.67 0c0.11,0 0.19,0.03 0.25,0.08 0.06,0.06 0.09,0.14 0.09,0.25 0,0.05 -0.01,0.1 -0.03,0.14 -0.02,0.04 -0.04,0.07 -0.08,0.1 0.06,0.04 0.11,0.09 0.14,0.15 0.03,0.06 0.05,0.12 0.05,0.2 0,0.12 -0.04,0.22 -0.11,0.29 -0.07,0.07 -0.16,0.1 -0.28,0.1l-0.7 0zm1.48 -0.59l0.47 0c0.05,0 0.08,-0.01 0.11,-0.03 0.02,-0.03 0.03,-0.06 0.03,-0.11 0,-0.04 -0.01,-0.08 -0.03,-0.1 -0.03,-0.02 -0.06,-0.03 -0.11,-0.03l-0.47 0 0 0.27zm0 0.15l0 0.44 -0.13 0 0 -1.01 0.6 0c0.09,0 0.16,0.02 0.21,0.07 0.05,0.05 0.07,0.12 0.07,0.21 0,0.07 -0.02,0.14 -0.06,0.19 -0.04,0.05 -0.09,0.09 -0.15,0.1l0.24 0.44 -0.15 0 -0.25 -0.44 -0.38 0zm1.46 0.33c0.11,0 0.21,-0.04 0.28,-0.11 0.08,-0.08 0.11,-0.17 0.11,-0.28 0,-0.12 -0.03,-0.21 -0.11,-0.28 -0.07,-0.08 -0.17,-0.11 -0.28,-0.11 -0.12,0 -0.21,0.03 -0.29,0.11 -0.07,0.07 -0.11,0.16 -0.11,0.28 0,0.11 0.04,0.2 0.11,0.28 0.08,0.07 0.17,0.11 0.29,0.11zm0 0.15c-0.16,0 -0.29,-0.06 -0.39,-0.16 -0.1,-0.1 -0.15,-0.23 -0.15,-0.38 0,-0.16 0.05,-0.29 0.15,-0.39 0.1,-0.1 0.23,-0.15 0.39,-0.15 0.15,0 0.28,0.05 0.38,0.15 0.1,0.1 0.15,0.23 0.15,0.39 0,0.15 -0.05,0.28 -0.15,0.38 -0.1,0.1 -0.23,0.16 -0.38,0.16zm0.92 -0.04l-0.3 -1.01 0.14 0 0.21 0.74 0.22 -0.74 0.11 0 0.22 0.74 0.22 -0.74 0.13 0 -0.29 1.01 -0.1 0 -0.23 -0.78 -0.23 0.78 -0.1 0zm1.71 -0.72l0.44 0 0 0.14 -0.44 0 0 -0.14zm1.36 0.72l0 -1.31 0.14 0 0 1.16 0.73 0 0 0.15 -0.87 0zm1.17 -0.39l0.34 0 -0.17 -0.39 -0.17 0.39zm-0.32 0.39l0.45 -1.01 0.08 0 0.45 1.01 -0.15 0 -0.11 -0.25 -0.46 0 -0.11 0.25 -0.15 0zm1.11 0l0 -1.01 0.11 0 0.36 0.59 0.36 -0.59 0.11 0 0 1.01 -0.14 0 0 -0.73 -0.33 0.57 -0.34 -0.57 0 0.73 -0.13 0zm1.24 0l0 -1.02 0.14 0 0 1.02 -0.14 0z"/>
   </g>
  </g>
 </g>
</svg>
